<?xml version="1.0" encoding="UTF-8" standalone="no"?>
<svg
   xmlns:dc="http://purl.org/dc/elements/1.1/"
   xmlns:cc="http://creativecommons.org/ns#"
   xmlns:rdf="http://www.w3.org/1999/02/22-rdf-syntax-ns#"
   xmlns:svg="http://www.w3.org/2000/svg"
   xmlns="http://www.w3.org/2000/svg"
   xmlns:sodipodi="http://sodipodi.sourceforge.net/DTD/sodipodi-0.dtd"
   xmlns:inkscape="http://www.inkscape.org/namespaces/inkscape"
   class="bi bi-house-fill"
   width="1em"
   height="1em"
   viewBox="0 0 20 20"
   fill="currentColor"
   version="1.1"
   id="svg6"
   sodipodi:docname="house-fill.svg"
   inkscape:version="0.92.3 (2405546, 2018-03-11)">
  <metadata
     id="metadata12">
    <rdf:RDF>
      <cc:Work
         rdf:about="">
        <dc:format>image/svg+xml</dc:format>
        <dc:type
           rdf:resource="http://purl.org/dc/dcmitype/StillImage" />
      </cc:Work>
    </rdf:RDF>
  </metadata>
  <defs
     id="defs10" />
  <sodipodi:namedview
     pagecolor="#ffffff"
     bordercolor="#666666"
     borderopacity="1"
     objecttolerance="10"
     gridtolerance="10"
     guidetolerance="10"
     inkscape:pageopacity="0"
     inkscape:pageshadow="2"
     inkscape:window-width="1585"
     inkscape:window-height="912"
     id="namedview8"
     showgrid="false"
     inkscape:zoom="33.37544"
     inkscape:cx="4.1857536"
     inkscape:cy="10.495724"
     inkscape:window-x="0"
     inkscape:window-y="0"
     inkscape:window-maximized="0"
     inkscape:current-layer="svg6" />
  <path
     d="M8.5 12.995V16.5a.5.5 0 01-.5.5H4a.5.5 0 01-.5-.5v-7a.5.5 0 01.146-.354l6-6a.5.5 0 01.708 0l6 6a.5.5 0 01.146.354v7a.5.5 0 01-.5.5h-4a.5.5 0 01-.5-.5V13c0-.25-.25-.5-.5-.5H9c-.25 0-.5.25-.5.495z"
     id="path2"
     style="fill:#858585;fill-opacity:1" />
  <path
     fill-rule="evenodd"
     d="M15 4.5V8l-2-2V4.5a.5.5 0 01.5-.5h1a.5.5 0 01.5.5z"
     clip-rule="evenodd"
     id="path4"
     style="fill:#858585;fill-opacity:1" />
</svg>
